# xmcd
#
# Track frame offsets:
#	150
#	13169
#	30800
#	45320
#	56827
#	78786
#	91131
#	105567
#	127986
#	149812
#	164913
#
# Disc length: 2564 seconds
#
# Revision: 1
# Processed by: cddbd v1.5.2PL0 Copyright (c) Steve Scherf et al.
# Submitted via: audiograbber 1.83.01
#
DISCID=880a020b
DTITLE=the Whiskey and the Devil Chaplain - The Whiskey and the Devil Chaplain
DYEAR=2010
DGENRE=Bluegrass
TTITLE0=Out in the Rain
TTITLE1=Aware
TTITLE2=Cone On now, Come on!
TTITLE3=Ache
TTITLE4=Katie
TTITLE5=Bruised Heart
TTITLE6=Dolly Girl
TTITLE7=I'll Give It More
TTITLE8=Liar
TTITLE9=Angeline
TTITLE10=Did It Make You Insane?
EXTD=
EXTT0=
EXTT1=
EXTT2=
EXTT3=
EXTT4=
EXTT5=
EXTT6=
EXTT7=
EXTT8=
EXTT9=
EXTT10=
PLAYORDER=
